<svg xmlns="http://www.w3.org/2000/svg" version="1.1" xmlns:xlink="http://www.w3.org/1999/xlink" xmlns:svgjs="http://svgjs.dev/svgjs" width="2000" height="1247" viewBox="0 0 2000 1247"><g transform="matrix(1,0,0,1,-1.2121212121212466,0.504858299595071)"><svg viewBox="0 0 396 247" data-background-color="#ffffff" preserveAspectRatio="xMidYMid meet" height="1247" width="2000" xmlns="http://www.w3.org/2000/svg" xmlns:xlink="http://www.w3.org/1999/xlink"><g id="tight-bounds" transform="matrix(1,0,0,1,0.2400000000000091,-0.09999999999999432)"><svg viewBox="0 0 395.52 247.2" height="247.2" width="395.52"><g><svg></svg></g><g><svg viewBox="0 0 395.52 247.2" height="247.2" width="395.52"><g transform="matrix(1,0,0,1,75.52646666666666,37.08)"><svg viewBox="0 0 244.46706666666665 173.04" height="173.04" width="244.46706666666665"><g><svg viewBox="0 0 244.46706666666665 173.04" height="173.04" width="244.46706666666665"><g><svg viewBox="0 0 244.46706666666665 173.04" height="173.04" width="244.46706666666665"><g><svg viewBox="0 0 244.46706666666665 173.04" height="173.04" width="244.46706666666665"><g id="textblocktransform"><svg viewBox="0 0 244.46706666666665 173.04" height="173.04" width="244.46706666666665" id="textblock"><g><svg viewBox="0 0 244.46706666666665 173.04" height="173.04" width="244.46706666666665"><g transform="matrix(1,0,0,1,0,0)"><svg width="244.46706666666665" viewBox="1.15 -42.19 62.08 43.949999999999996" height="173.04" data-palette-color="#1d597d"><path d="M4.15-8.79L4.15-8.79 1.15-8.79 1.15-10.55 4.15-10.55Q5.44-10.55 6.32-11.52 7.2-12.5 7.2-14.11L7.2-14.11 7.2-40.43 8.96-40.43 8.96-14.11Q8.96-11.79 7.57-10.29 6.18-8.79 4.15-8.79ZM4.15-5.27L4.15-5.27 1.15-5.27 1.15-7.03 4.15-7.03Q6.88-7.03 8.8-9.11 10.72-11.18 10.72-14.11L10.72-14.11 10.72-40.43 12.48-40.43 12.48-14.11Q12.48-10.45 10.05-7.86 7.62-5.27 4.15-5.27ZM4.15-1.76L4.15-1.76 1.15-1.76 1.15-3.52 4.15-3.52Q8.35-3.52 11.29-6.62 14.23-9.72 14.23-14.11L14.23-14.11 14.23-40.43 15.99-40.43 15.99-14.11Q15.99-10.77 14.42-7.92 12.84-5.08 10.11-3.42 7.37-1.76 4.15-1.76ZM4.15 1.76L4.15 1.76 1.15 1.76 1.15 0 4.15 0Q6.93 0 9.45-1.12 11.96-2.25 13.78-4.14 15.6-6.03 16.67-8.64 17.75-11.25 17.75-14.11L17.75-14.11 17.75-40.43 19.51-40.43 19.51-14.11Q19.51-10.89 18.3-7.96 17.09-5.03 15.03-2.89 12.96-0.76 10.12 0.5 7.28 1.76 4.15 1.76ZM54.51-26.61L54.51-26.61 53.07-25.66Q51.76-27.61 49.64-28.75 47.53-29.88 45.07-29.88L45.07-29.88Q41.06-29.88 38.23-27.05 35.4-24.22 35.4-20.21 35.4-16.21 38.23-13.38 41.06-10.55 45.07-10.55L45.07-10.55Q47.53-10.55 49.64-11.69 51.76-12.84 53.07-14.79L53.07-14.79 54.49-13.77Q52.93-11.47 50.44-10.13 47.95-8.79 45.07-8.79L45.07-8.79Q42.75-8.79 40.63-9.69 38.52-10.6 36.98-12.13 35.45-13.67 34.54-15.78 33.64-17.9 33.64-20.21 33.64-22.53 34.54-24.65 35.45-26.76 36.98-28.3 38.52-29.83 40.63-30.74 42.75-31.64 45.07-31.64L45.07-31.64Q47.97-31.64 50.46-30.29 52.95-28.93 54.51-26.61ZM57.42-28.61L57.42-28.61 55.95-27.66Q54.15-30.3 51.28-31.85 48.41-33.4 45.07-33.4L45.07-33.4Q41.48-33.4 38.45-31.63 35.42-29.86 33.65-26.83 31.88-23.8 31.88-20.21 31.88-16.63 33.65-13.6 35.42-10.57 38.45-8.8 41.48-7.03 45.07-7.03L45.07-7.03Q48.41-7.03 51.29-8.59 54.17-10.16 55.98-12.82L55.98-12.82 57.42-11.82Q55.37-8.79 52.11-7.03 48.85-5.27 45.07-5.27L45.07-5.27Q41.01-5.27 37.57-7.28 34.13-9.28 32.13-12.72 30.12-16.16 30.12-20.21 30.12-24.27 32.13-27.71 34.13-31.15 37.57-33.15 41.01-35.16 45.07-35.16L45.07-35.16Q48.85-35.16 52.11-33.4 55.37-31.64 57.42-28.61ZM60.35-30.57L60.35-30.57 58.88-29.61Q56.59-32.98 52.94-34.95 49.29-36.91 45.07-36.91L45.07-36.91Q41.67-36.91 38.57-35.6 35.47-34.28 33.24-32.04 31-29.81 29.68-26.71 28.37-23.61 28.37-20.21 28.37-16.82 29.68-13.72 31-10.62 33.24-8.39 35.47-6.15 38.57-4.83 41.67-3.52 45.07-3.52L45.07-3.52Q49.31-3.52 52.95-5.49 56.59-7.47 58.88-10.84L58.88-10.84 60.3-9.79Q57.76-6.08 53.75-3.92 49.73-1.76 45.07-1.76L45.07-1.76Q40.06-1.76 35.81-4.24 31.56-6.71 29.09-10.96 26.61-15.21 26.61-20.21 26.61-25.22 29.09-29.47 31.56-33.72 35.81-36.19 40.06-38.67 45.07-38.67L45.07-38.67Q49.75-38.67 53.78-36.49 57.81-34.3 60.35-30.57ZM63.23-32.57L63.23-32.57 61.77-31.62Q58.98-35.69 54.58-38.06 50.17-40.43 45.07-40.43L45.07-40.43Q40.96-40.43 37.22-38.83 33.47-37.23 30.76-34.52 28.05-31.81 26.45-28.06 24.85-24.32 24.85-20.21 24.85-16.11 26.45-12.37 28.05-8.62 30.76-5.91 33.47-3.2 37.22-1.6 40.96 0 45.07 0L45.07 0Q50.17 0 54.59-2.39 59.01-4.79 61.79-8.86L61.79-8.86 63.21-7.79Q60.18-3.39 55.39-0.82 50.61 1.76 45.07 1.76L45.07 1.76Q40.6 1.76 36.53 0.01 32.47-1.73 29.53-4.68 26.58-7.62 24.84-11.68 23.09-15.75 23.09-20.21 23.09-24.68 24.84-28.75 26.58-32.81 29.53-35.75 32.47-38.7 36.53-40.44 40.6-42.19 45.07-42.19L45.07-42.19Q50.63-42.19 55.42-39.6 60.2-37.01 63.23-32.57Z" opacity="1" transform="matrix(1,0,0,1,0,0)" fill="#1d597d" class="wordmark-text-0" data-fill-palette-color="primary" id="text-0"></path></svg></g></svg></g></svg></g></svg></g><g></g></svg></g></svg></g></svg></g><g><path d="M0 247.2v-247.2h395.52v247.2zM379.915 231.595v-215.99h-364.31v215.99z" fill="#1d597d" fill-rule="nonzero" stroke="none" stroke-width="1" stroke-linecap="butt" stroke-linejoin="miter" stroke-miterlimit="10" stroke-dasharray="" stroke-dashoffset="0" font-family="none" font-weight="none" font-size="none" text-anchor="none" style="mix-blend-mode: normal" data-fill-palette-color="tertiary"></path></g></svg></g><defs></defs></svg><rect width="395.52" height="247.2" fill="none" stroke="none" visibility="hidden"></rect></g></svg></g></svg>